<svg width="55" height="55" viewBox="0 0 55 55" fill="none" xmlns="http://www.w3.org/2000/svg">
<g clip-path="url(#clip0)">
<path d="M13.3349 27.5L8.12177 32.6881L2.89551 27.5L8.10864 22.3119L13.3349 27.5ZM26.0066 14.8892L34.949 23.7886L40.1622 18.6006L26.0066 4.5L11.8379 18.6006L17.0511 23.7886L26.0066 14.8892ZM43.8915 22.3119L38.6783 27.5L43.8915 32.6881L49.1046 27.5L43.8915 22.3119ZM26.0066 40.1108L17.0642 31.2114L11.8511 36.3994L26.0066 50.5L40.1622 36.3994L34.949 31.2114L26.0066 40.1108ZM26.0066 32.6881L31.2197 27.5L26.0066 22.3119L20.7804 27.5L26.0066 32.6881Z" fill="#F0B90B"/>
</g>
<defs>
<clipPath id="clip0">
<rect width="55" height="55" fill="white"/>
</clipPath>
</defs>
</svg>
