<svg width="55" height="55" viewBox="0 0 55 55" fill="none" xmlns="http://www.w3.org/2000/svg">
<path d="M45.7019 29.4932C45.6492 28.824 45.6009 28.1365 45.5396 27.4522C45.5192 27.1939 45.4808 26.9372 45.4247 26.6842C45.2356 25.8785 45.0477 25.0728 44.8285 24.2758C44.6513 23.6312 44.4547 22.9867 44.2216 22.3551C43.9885 21.7234 43.6984 21.0821 43.417 20.4548C43.0228 19.575 42.6393 18.6877 42.1999 17.8294C41.6778 16.8089 41.1257 15.8034 40.5424 14.813C39.9559 13.8064 39.3607 12.802 38.7012 11.8406C38.1054 10.976 37.4635 10.1441 36.7783 9.34843C36.1778 8.6607 35.5402 8.00624 34.8684 7.38798C34.3786 6.91747 33.8488 6.49047 33.285 6.1118C32.3169 5.45538 31.2594 4.94165 30.145 4.58641C29.4844 4.38554 28.8119 4.16317 28.1319 4.10516C27.2661 4.03319 26.3928 3.9494 25.5108 4.03856C24.7428 4.11591 23.9704 4.13417 23.2142 4.31786C22.8199 4.41346 22.4117 4.45321 22.0239 4.566C21.3063 4.77548 20.5952 5.00643 19.8895 5.25243C19.13 5.51669 18.3651 5.7745 17.6336 6.09677C16.7409 6.48778 15.874 6.93573 15.0007 7.37079C14.3014 7.71884 13.5924 8.05399 12.9178 8.44501C11.7845 9.10673 10.6716 9.80389 9.55654 10.4957C8.35088 11.252 7.20879 12.1053 6.1416 13.047C4.78507 14.2153 3.61054 15.5795 2.65684 17.0946C2.4667 17.3997 2.24541 17.694 2.10791 18.0217C1.84872 18.6278 1.62456 19.2483 1.43652 19.8801C1.25208 20.4777 1.12369 21.0912 1.05303 21.7127C0.995547 22.455 0.984784 23.2002 1.0208 23.9438C1.04229 24.6432 1.12178 25.3403 1.17764 26.0375C1.18352 26.0758 1.1925 26.1135 1.20449 26.1503C1.30547 26.5617 1.39893 26.9753 1.51172 27.3835C1.68789 28.0216 1.85977 28.6629 2.06817 29.2913C2.21748 29.7425 2.43018 30.1711 2.60527 30.6158C2.74815 30.9907 2.84912 31.3828 3.00488 31.7513C3.25195 32.3378 3.52266 32.9146 3.79551 33.4904C4.2252 34.4057 4.65488 35.3273 5.12217 36.2254C5.5207 36.9881 5.96758 37.7293 6.41123 38.4641C7.27061 39.8788 8.16113 41.2667 9.19024 42.5643C9.95854 43.5595 10.8122 44.4858 11.7415 45.3326C13.1767 46.6066 14.7493 47.6293 16.6045 48.2083C17.4789 48.4811 18.3662 48.6165 19.26 48.7293C19.8039 48.7823 20.3516 48.7848 20.896 48.7368C21.9007 48.692 22.8984 48.5481 23.8748 48.3071C24.312 48.1922 24.7729 48.1632 25.2036 48.031C25.8245 47.8398 26.4282 47.5885 27.0395 47.365C27.7044 47.1223 28.3747 46.8956 29.0311 46.6346C29.4747 46.4584 29.9022 46.2425 30.3298 46.0298C31.5007 45.4443 32.6931 44.8986 33.8285 44.2498C35.225 43.4495 36.6011 42.5923 37.9471 41.7007C39.2373 40.8517 40.4374 39.873 41.5285 38.7799C42.8176 37.4779 43.9262 36.0417 44.6856 34.3541C45.0692 33.4836 45.349 32.5711 45.5192 31.6352C45.6438 30.9402 45.6428 30.2237 45.7019 29.4932Z" fill="#7055E9"/>
<path d="M36.953 27.8751C36.8671 28.8193 36.4922 29.5208 35.664 29.9816C34.6284 30.5585 33.609 31.1633 32.582 31.7552L27.4183 34.7286C25.6608 35.7395 23.9195 36.7782 22.1417 37.7536C20.8902 38.4401 19.3863 37.9599 18.8191 36.5816C18.383 35.5203 18.774 34.2936 19.8794 33.6748C21.2619 32.8992 22.6154 32.0721 23.9893 31.2814C25.4696 30.4307 26.9649 29.6067 28.4409 28.7506C29.5334 28.1179 30.6022 27.4443 31.6915 26.8052C32.3414 26.4228 32.9806 26.0049 33.6745 25.7181C34.7648 25.268 36.1119 25.6708 36.6522 26.8804C36.7919 27.194 36.8553 27.5421 36.953 27.8751Z" fill="white"/>
<path d="M29.9246 17.4321C30.9676 17.4095 31.9108 18.2689 32.1568 19.0993C32.3112 19.6149 32.2849 20.1678 32.0824 20.6665C31.8798 21.1652 31.5131 21.5798 31.0428 21.8417C29.6463 22.6152 28.2885 23.4531 26.9071 24.248C25.4 25.1245 23.8821 25.9839 22.3685 26.8433C21.4232 27.3861 20.479 27.9318 19.5358 28.4804C18.9031 28.8489 18.2714 29.2195 17.6495 29.6073C17.3828 29.7782 17.0837 29.8923 16.7709 29.9422C16.4581 29.9921 16.1384 29.9769 15.8317 29.8974C15.5251 29.8179 15.2382 29.6759 14.9891 29.4803C14.7399 29.2847 14.5339 29.0398 14.3839 28.7608C13.7984 27.649 14.038 26.2417 15.3249 25.5242C16.5151 24.8603 17.6774 24.1481 18.858 23.466C20.2888 22.6377 21.7251 21.8192 23.1548 20.9953L27.0424 18.7641C27.6988 18.3881 28.3412 17.9874 29.0126 17.6437C29.2876 17.5116 29.6216 17.4976 29.9246 17.4321Z" fill="white"/>
<path d="M26.9101 11.7228C26.8231 12.6058 26.4429 13.2407 25.6866 13.6736C24.3728 14.4256 23.0752 15.2033 21.7646 15.9606C20.583 16.647 19.382 17.3184 18.1918 18.0016C17.0259 18.6698 15.8618 19.3394 14.6995 20.0104C14.0184 20.4004 13.3514 20.8161 12.6499 21.1641C11.7057 21.6325 10.4896 21.2952 9.87304 20.352C9.71426 20.1108 9.60488 19.8405 9.55123 19.5567C9.49757 19.2729 9.5007 18.9814 9.56044 18.6988C9.61857 18.3894 9.74446 18.0967 9.92907 17.8417C10.1137 17.5867 10.3524 17.3757 10.6282 17.2239C12.217 16.3076 13.7982 15.3773 15.3881 14.4642C16.9779 13.5511 18.5968 12.6477 20.1952 11.7303C21.307 11.0923 22.4017 10.4241 23.5178 9.79675C24.6081 9.18123 26.0884 9.55828 26.6233 10.7786C26.7555 11.074 26.8167 11.4049 26.9101 11.7228Z" fill="white"/>
</svg>
