<svg width="55" height="55" viewBox="0 0 55 55" fill="none" xmlns="http://www.w3.org/2000/svg">
<path d="M49.4837 13.7897C50.8822 32.8363 38.695 41.8268 27.7066 42.8258C17.5173 43.6915 7.92744 37.4315 7.06169 27.8416C6.39572 19.9166 11.2573 16.5201 15.1199 16.1872C19.1157 15.8542 22.4455 18.5846 22.7119 21.9145C22.9783 25.1111 20.9804 26.5762 19.6484 26.7094C18.5829 26.776 17.1844 26.11 17.0512 24.7115C16.918 23.5128 17.3842 23.313 17.3176 22.0477C17.1178 19.7168 15.1199 19.4504 13.9877 19.5836C12.6558 19.7168 10.1917 21.2485 10.5913 25.1777C10.9243 29.1069 14.7203 32.2369 19.6484 31.7708C24.9762 31.3046 28.7056 27.1756 28.972 21.3151C28.972 20.9821 29.0385 20.7157 29.1717 20.4493C29.2383 20.3161 29.3049 20.183 29.3715 20.1164C29.5047 19.9166 29.6379 19.7834 29.8377 19.5836C29.9709 19.4504 30.1707 19.2506 30.3039 19.0508C32.6348 16.8531 41.0259 11.6586 48.9509 13.3235C49.2173 13.1903 49.4837 13.4567 49.4837 13.7897Z" fill="url(#paint0_linear)"/>
<defs>
<linearGradient id="paint0_linear" x1="47.0425" y1="12.6617" x2="19.4558" y2="51.7099" gradientUnits="userSpaceOnUse">
<stop stop-color="#11C4D1"/>
<stop offset="1" stop-color="#0062AD"/>
</linearGradient>
</defs>
</svg>
