<svg width="55" height="55" viewBox="0 0 55 55" fill="none" xmlns="http://www.w3.org/2000/svg">
<path fill-rule="evenodd" clip-rule="evenodd" d="M9.62158 17.6797H39.5112V28.2422C39.5112 35.0902 33.971 40.6417 27.1369 40.6417H21.9959C15.1617 40.6417 9.62158 35.0902 9.62158 28.2422V17.6797Z" fill="#1EB8E7"/>
<path opacity="0.25" fill-rule="evenodd" clip-rule="evenodd" d="M13.6069 20.6747V29.1607C13.6069 35.5015 18.7366 40.6417 25.0645 40.6417H22.0756C15.1933 40.6142 9.62701 35.0188 9.62158 28.1224V17.6797L13.6069 20.6747Z" fill="white"/>
<path fill-rule="evenodd" clip-rule="evenodd" d="M9.62158 17.6797H39.5112V28.2422C39.5112 35.0902 33.971 40.6417 27.1369 40.6417H21.9959C15.1617 40.6417 9.62158 35.0902 9.62158 28.2422V17.6797Z" stroke="#005268" stroke-width="1.32231" stroke-linecap="round" stroke-linejoin="round"/>
<path fill-rule="evenodd" clip-rule="evenodd" d="M39.5112 17.1807C39.5003 19.106 37.9454 20.664 36.0241 20.675H13.1087C11.1828 20.675 9.62158 19.1105 9.62158 17.1807C9.63247 15.2555 11.1873 13.6974 13.1087 13.6865H36.0241C37.9454 13.6974 39.5003 15.2555 39.5112 17.1807Z" fill="#0C9FE1"/>
<path d="M16.5957 18.2916L16.5957 13.6367H26.5589L18.8071 18.1153C18.6635 18.1983 18.5015 18.2439 18.3358 18.248L16.5957 18.2916ZM36.024 13.6866H31.5405L31.5405 18.2916H33.276C33.4446 18.2916 33.6105 18.2486 33.7579 18.1667L38.9432 15.284C38.3078 14.2853 37.206 13.6824 36.024 13.6866Z" fill="#007FC6"/>
<path d="M36.017 13.6865H13.1158C11.186 13.6865 9.62158 15.2509 9.62158 17.1807C9.62158 19.1105 11.186 20.675 13.1158 20.675H36.017C37.9468 20.675 39.5112 19.1105 39.5112 17.1807C39.5112 15.2509 37.9468 13.6865 36.017 13.6865Z" stroke="#005268" stroke-width="1.32231" stroke-linecap="round" stroke-linejoin="round"/>
<path d="M20.5212 28.6617H17.6518C17.0746 28.6564 16.6065 28.1917 16.5957 27.6134V24.7282C16.6011 24.146 17.0708 23.6753 17.6518 23.6699H20.5212C21.1022 23.6753 21.5719 24.146 21.5773 24.7282V27.6134C21.5665 28.1917 21.0984 28.6564 20.5212 28.6617ZM27.5552 27.6134V24.7282C27.5498 24.146 27.0801 23.6753 26.4991 23.6699H23.6297C23.0487 23.6753 22.579 24.146 22.5736 24.7282V27.6134C22.579 28.1956 23.0487 28.6662 23.6297 28.6716H26.4991C27.0801 28.6662 27.5498 28.1956 27.5552 27.6134ZM33.5331 27.6134V24.7282C33.5277 24.146 33.0581 23.6753 32.4771 23.6699H29.6076C29.0266 23.6753 28.557 24.146 28.5515 24.7282V27.6134C28.557 28.1956 29.0266 28.6662 29.6076 28.6716H32.4771C33.0581 28.6662 33.5277 28.1956 33.5331 27.6134ZM21.5773 33.6035V30.7183C21.5719 30.1361 21.1022 29.6654 20.5212 29.66H17.6518C17.0708 29.6654 16.6011 30.1361 16.5957 30.7183V33.6035C16.6011 34.1857 17.0708 34.6563 17.6518 34.6617H20.5212C21.1022 34.6563 21.5719 34.1857 21.5773 33.6035ZM27.5552 33.6035V30.7183C27.5498 30.1361 27.0801 29.6654 26.4991 29.66H23.6297C23.0487 29.6654 22.579 30.1361 22.5736 30.7183V33.6035C22.579 34.1857 23.0487 34.6563 23.6297 34.6617H26.4991C27.0801 34.6563 27.5498 34.1857 27.5552 33.6035ZM33.5331 33.6035V30.7183C33.5277 30.1361 33.0581 29.6654 32.4771 29.66H29.6076C29.0266 29.6654 28.557 30.1361 28.5515 30.7183V33.6035C28.557 34.1857 29.0266 34.6563 29.6076 34.6617H32.4771C33.0581 34.6563 33.5277 34.1857 33.5331 33.6035Z" fill="#0C9FE1"/>
<path fill-rule="evenodd" clip-rule="evenodd" d="M14.603 17.0011V13.6866C14.603 8.17288 19.0637 3.70312 24.5662 3.70312C30.0688 3.70312 34.5294 8.17288 34.5294 13.6866V17.0011C34.5294 17.3805 33.4136 17.68 32.0386 17.68C30.6637 17.68 29.5478 17.3805 29.5478 17.0011V13.6866C29.5478 10.9297 27.3175 8.69486 24.5662 8.69486C21.815 8.69486 19.5846 10.9297 19.5846 13.6866V17.0011C19.5846 17.3805 18.4688 17.68 17.0938 17.68C15.7189 17.68 14.603 17.3805 14.603 17.0011Z" fill="#E3EDFF"/>
<path fill-rule="evenodd" clip-rule="evenodd" d="M14.603 17.0011V13.6866C14.603 8.17288 19.0637 3.70312 24.5662 3.70312C30.0688 3.70312 34.5294 8.17288 34.5294 13.6866V17.0011C34.5294 17.3805 33.4136 17.68 32.0386 17.68C30.6637 17.68 29.5478 17.3805 29.5478 17.0011V13.6866C29.5478 10.9297 27.3175 8.69486 24.5662 8.69486C21.815 8.69486 19.5846 10.9297 19.5846 13.6866V17.0011C19.5846 17.3805 18.4688 17.68 17.0938 17.68C15.7189 17.68 14.603 17.3805 14.603 17.0011Z" stroke="#005268" stroke-width="1.32231" stroke-linecap="round" stroke-linejoin="round"/>
<path d="M41.4936 33.6533H21.5874C18.8306 33.6533 16.5957 35.8882 16.5957 38.6451C16.5957 41.4019 18.8306 43.6368 21.5874 43.6368H41.4936C44.2504 43.6368 46.4853 41.4019 46.4853 38.6451C46.4853 35.8882 44.2504 33.6533 41.4936 33.6533Z" fill="#FFAE25" stroke="#005268" stroke-width="1.32231" stroke-linecap="round" stroke-linejoin="round"/>
<path d="M41.4936 37.6475H21.5874C18.8306 37.6475 16.5957 39.8823 16.5957 42.6392C16.5957 45.3961 18.8306 47.6309 21.5874 47.6309H41.4936C44.2504 47.6309 46.4853 45.3961 46.4853 42.6392C46.4853 39.8823 44.2504 37.6475 41.4936 37.6475Z" fill="#FFD166" stroke="#005268" stroke-width="1.32231" stroke-linecap="round" stroke-linejoin="round"/>
<path d="M22.4619 41.5283L24.6783 43.7492L22.4619 41.5283ZM24.6783 41.5283L22.4619 43.7492L24.6783 41.5283Z" fill="white"/>
<path d="M24.6783 41.5283L22.4619 43.7492M22.4619 41.5283L24.6783 43.7492L22.4619 41.5283Z" stroke="#005268" stroke-width="1.32231" stroke-linecap="round" stroke-linejoin="round"/>
<path d="M30.4326 41.5283L32.6489 43.7492L30.4326 41.5283ZM32.6489 41.5283L30.4326 43.7492L32.6489 41.5283Z" fill="white"/>
<path d="M32.6489 41.5283L30.4326 43.7492M30.4326 41.5283L32.6489 43.7492L30.4326 41.5283Z" stroke="#005268" stroke-width="1.32231" stroke-linecap="round" stroke-linejoin="round"/>
<path d="M37.1689 40.292L41.8536 44.9862L37.1689 40.292ZM41.8536 40.292L37.1689 44.9862L41.8536 40.292Z" fill="white"/>
<path d="M41.8536 40.292L37.1689 44.9862M37.1689 40.292L41.8536 44.9862L37.1689 40.292Z" stroke="#005268" stroke-width="1.32231" stroke-linecap="round" stroke-linejoin="round"/>
<path opacity="0.4" d="M19.5848 52.6225C15.1828 52.6225 11.6143 49.0467 11.6143 44.6357M24.5664 52.6225H29.548" stroke="#B5BFC7" stroke-width="1.32231" stroke-linecap="round" stroke-linejoin="round"/>
<path opacity="0.4" d="M44.493 17.6798C44.4945 15.0772 43.2305 12.6371 41.1055 11.1406" stroke="#B5BFC7" stroke-width="1.32231" stroke-linecap="round" stroke-linejoin="round"/>
<path opacity="0.4" d="M42.5 25.6666H46.4853M44.4926 23.6699V27.6633V23.6699Z" stroke="#B5BFC7" stroke-width="1.32231" stroke-linecap="round" stroke-linejoin="round"/>
</svg>
