<svg width="55" height="55" viewBox="0 0 55 55" fill="none" xmlns="http://www.w3.org/2000/svg">
<path d="M45.2797 16.3712V38.6497C45.2826 40.0491 44.7295 41.392 43.7426 42.3815C42.7556 43.371 41.4163 43.9256 40.0205 43.9227H20.956C19.5603 43.9256 18.2209 43.371 17.234 42.3815C16.247 41.392 15.6939 40.0491 15.6968 38.6497V10.7466C15.6968 9.34816 16.2509 8.00694 17.2372 7.01806C18.2235 6.02918 19.5612 5.47363 20.956 5.47363H34.4984C36.3613 5.47655 38.1453 6.22841 39.4508 7.56087L43.3075 11.5156C44.5706 12.8148 45.2782 14.5569 45.2797 16.3712Z" fill="#E3EDFF"/>
<path d="M44.6378 13.7672H40.6142C38.3533 13.7672 36.5205 11.9296 36.5205 9.66278V5.81836L37.2139 6.10304C37.6574 6.28512 38.0591 6.55573 38.3944 6.89833L43.4952 12.11C43.6673 12.2858 43.8206 12.4793 43.9524 12.687L44.6378 13.7672Z" fill="#005268" stroke="#005268" stroke-width="1.41007" stroke-linecap="round" stroke-linejoin="round"/>
<path fill-rule="evenodd" clip-rule="evenodd" d="M45.2797 16.3712V38.6497C45.2826 40.0491 44.7295 41.392 43.7426 42.3815C42.7556 43.371 41.4163 43.9256 40.0205 43.9227H20.956C19.5603 43.9256 18.2209 43.371 17.234 42.3815C16.247 41.392 15.6939 40.0491 15.6968 38.6497V10.7466C15.6968 9.34816 16.2509 8.00694 17.2372 7.01806C18.2235 6.02918 19.5612 5.47363 20.956 5.47363H34.4984C36.3613 5.47655 38.1453 6.22841 39.4508 7.56087L43.3075 11.5156C44.5706 12.8148 45.2782 14.5569 45.2797 16.3712Z" stroke="#005268" stroke-width="1.41007" stroke-linecap="round" stroke-linejoin="round"/>
<path opacity="0.15" d="M40.5793 21.666H33.7424C33.7424 21.8198 33.7424 21.9846 33.7972 22.1494C34.9984 22.3406 36.0953 22.9468 36.8979 23.8631H40.5793V26.0602H38.0812C38.2009 26.4967 38.2598 26.9477 38.2565 27.4004V28.0156H40.5793V30.2127H38.2565V32.4098H40.5793V34.6069H38.2565V37.1665C38.2728 39.5022 37.7634 41.8115 36.7664 43.9225H20.956C19.5603 43.9255 18.2209 43.3708 17.234 42.3813C16.247 41.3918 15.6939 40.0489 15.6968 38.6495V11.109C17.301 10.4906 19.0073 10.1813 20.7259 10.1972C26.5434 10.0743 31.7112 13.9017 33.3041 19.5129H40.5793V21.666Z" fill="#163150"/>
<path d="M5.36475 28.543H34.6409V39.067C34.6409 45.9828 29.0589 51.5942 22.1613 51.6124H18.9619C11.4506 51.6063 5.36475 45.4995 5.36475 37.9685V28.543Z" fill="#1EB8E7"/>
<path opacity="0.25" d="M9.26531 31.8386V40.0777C9.11149 43.1354 10.2374 46.1188 12.3715 48.3086C14.5056 50.4984 17.4543 51.6959 20.5068 51.6124H17.6143C10.8431 51.6124 5.36475 46.5371 5.36475 38.9352V28.543L9.26531 31.8386Z" fill="white"/>
<path fill-rule="evenodd" clip-rule="evenodd" d="M5.36475 28.543H34.6409V39.067C34.6409 45.9828 29.0589 51.5942 22.1613 51.6124H18.9619C11.4506 51.6063 5.36475 45.4995 5.36475 37.9685V28.543Z" stroke="#005268" stroke-width="1.41007" stroke-linecap="round" stroke-linejoin="round"/>
<path d="M34.6407 27.9933C34.6504 28.9916 34.2913 29.9581 33.6327 30.7067C33.0243 31.4036 32.146 31.8039 31.2223 31.8053H8.78306C6.78424 31.6815 5.25854 29.9655 5.36458 27.9604C5.35492 26.9622 5.71398 25.9956 6.3726 25.247C6.98104 24.5502 7.85936 24.1499 8.78306 24.1484H31.2551C32.4572 24.1659 33.5539 24.84 34.1148 25.9061C34.4725 26.5424 34.6541 27.263 34.6407 27.9933Z" fill="#0C9FE1"/>
<path d="M12.2017 28.98L12.2017 24.1484H21.975L14.7005 28.7526L12.2017 28.98ZM31.2553 24.1484H26.8726V28.98L31.5257 28.4495L34.1259 25.9061C33.5631 24.8365 32.4613 24.1619 31.2553 24.1484Z" fill="#007FC6"/>
<path d="M30.8289 24.1484H9.20965C7.08617 24.1484 5.36475 25.8699 5.36475 27.9933C5.36475 30.1168 7.08617 31.8382 9.20965 31.8382H30.8289C32.9523 31.8382 34.6738 30.1168 34.6738 27.9933C34.6738 25.8699 32.9523 24.1484 30.8289 24.1484Z" stroke="#005268" stroke-width="1.41007" stroke-linecap="round" stroke-linejoin="round"/>
<path d="M9.26514 27.7737V24.1485C9.26514 18.0814 14.1706 13.1631 20.2218 13.1631C23.1277 13.1631 25.9145 14.3205 27.9693 16.3806C30.0241 18.4408 31.1784 21.235 31.1784 24.1485V27.7737C31.1784 28.1802 29.9513 28.5207 28.4393 28.5207C26.9272 28.5207 25.7001 28.1912 25.7001 27.7737V24.1485C25.7001 21.115 23.2474 18.6558 20.2218 18.6558C17.1962 18.6558 14.7435 21.115 14.7435 24.1485V27.7737C14.7435 28.1802 13.5163 28.5207 12.0043 28.5207C10.5361 28.5427 9.26514 28.2131 9.26514 27.7737Z" fill="#E3EDFF"/>
<path fill-rule="evenodd" clip-rule="evenodd" d="M9.26514 27.7737V24.1485C9.26514 18.0814 14.1706 13.1631 20.2218 13.1631C23.1277 13.1631 25.9145 14.3205 27.9693 16.3806C30.0241 18.4408 31.1784 21.235 31.1784 24.1485V27.7737C31.1784 28.1802 29.9513 28.5207 28.4393 28.5207C26.9272 28.5207 25.7001 28.1912 25.7001 27.7737V24.1485C25.7001 21.115 23.2474 18.6558 20.2218 18.6558C17.1962 18.6558 14.7435 21.115 14.7435 24.1485V27.7737C14.7435 28.1802 13.5163 28.5207 12.0043 28.5207C10.5361 28.5427 9.26514 28.2131 9.26514 27.7737Z" stroke="#005268" stroke-width="1.41007" stroke-linecap="round" stroke-linejoin="round"/>
<path opacity="0.4" d="M24.6705 38.9243C24.689 40.1354 23.9551 41.2304 22.8297 41.6707V46.0649C22.8144 47.1032 21.0418 47.1018 21.0548 46.0649V41.6707C19.9213 41.2326 19.1816 40.1311 19.2031 38.9134C19.2031 37.3966 20.4295 36.167 21.9423 36.167C23.455 36.167 24.6814 37.3966 24.6814 38.9134L24.6705 38.9243Z" fill="white"/>
<path d="M23.1579 38.7596C23.1571 39.9285 22.4185 40.9688 21.3172 41.3521V45.4277C21.3172 45.9192 20.9199 46.3176 20.4297 46.3176C19.9396 46.3176 19.5422 45.9192 19.5422 45.4277V41.3631C18.218 40.9147 17.4429 39.5385 17.7438 38.17C18.0447 36.8015 19.325 35.8796 20.7145 36.0309C22.1041 36.1822 23.1571 37.3582 23.1579 38.7596Z" fill="#163150"/>
</svg>
