<svg width="55" height="55" viewBox="0 0 55 55" fill="none" xmlns="http://www.w3.org/2000/svg">
<path d="M46.715 8.44884V19.6952C46.8492 24.6386 46.1489 29.5691 44.6436 34.2784L44.4281 34.8665C43.7007 36.8837 42.7487 38.8123 41.5903 40.6157C41.3868 40.9278 41.1712 41.2279 40.9557 41.5519C37.9347 45.7728 33.9585 49.2157 29.3532 51.5981C28.7186 51.274 28.1558 50.9259 27.5212 50.5779C18.6607 45.4047 14.8291 38.9594 13.2366 32.694C13.0091 31.8418 12.8415 31.0017 12.6739 30.1735C12.1743 27.1394 11.9498 24.0662 12.0033 20.9915C12.0033 20.5594 12.0033 20.1393 12.0033 19.7913V8.44884C17.5267 7.63191 22.9332 6.15717 28.1079 4.0559C28.9581 3.69582 29.3652 3.46777 29.3652 3.46777C31.9303 4.69177 34.6041 5.67226 37.3516 6.3964C40.4313 7.25834 43.5575 7.94359 46.715 8.44884Z" fill="#1EB8E7"/>
<path d="M44.4157 34.8543C43.6883 36.8715 42.7364 38.8001 41.5779 40.6035C41.3743 40.9156 41.1588 41.2156 40.9433 41.5397C37.9212 45.7565 33.945 49.1952 29.3408 51.5738C28.7062 51.2498 28.1434 50.9017 27.5088 50.5536C18.6603 45.4045 14.8287 38.9471 13.2362 32.6938C13.0087 31.8416 12.841 31.0014 12.6734 30.1733C15.1879 28.5649 17.4629 27.2326 17.4629 27.2326L18.0975 27.1006L12.0508 20.9913C12.0508 20.5592 12.0508 20.1511 12.0508 19.791V8.4486C17.5702 7.63108 22.9726 6.15634 28.1434 4.05566C29.6641 4.61978 31.7355 5.37595 31.7355 5.43596C36.8842 8.4486 39.5783 18.7708 36.525 24.7961L44.4157 34.8543Z" fill="#0C9FE1"/>
<path opacity="0.4" fill-rule="evenodd" clip-rule="evenodd" d="M15.5847 8.50879V19.7432C15.5847 20.8651 15.5518 21.9927 15.5187 23.1243C15.4073 26.9397 15.2945 30.8005 16.4384 34.6443C17.8993 39.5538 21.4406 44.458 29.9425 48.9058L29.3861 49.9693C20.6579 45.4032 16.8593 40.2672 15.288 34.9866C14.0835 30.939 14.2057 26.8181 14.3198 22.9715C14.3525 21.8702 14.3845 20.7914 14.3845 19.7432V8.50879H15.5847Z" fill="white"/>
<path fill-rule="evenodd" clip-rule="evenodd" d="M46.7149 19.7433C46.7149 29.1053 45.3379 42.9202 29.3531 51.5861C12.1349 42.5721 11.9912 29.0933 11.9912 19.7433V8.44884C23.7254 6.49242 29.3531 3.46777 29.3531 3.46777C29.3531 3.46777 35.1842 6.62445 46.7149 8.44884V19.7433Z" stroke="#005268" stroke-width="1.78947" stroke-linecap="round" stroke-linejoin="round"/>
<path d="M45.8169 42.2246L31.9873 24.2808C37.9741 12.6983 23.5338 -0.264491 12.4582 8.32935C1.8016 16.5871 9.4887 33.9548 22.6238 30.7742L25.8328 35.1551L29.5566 35.5872L29.0896 39.272L30.9934 41.7325L34.6694 42.2006L34.2024 45.8854L35.8069 47.9618L43.1587 48.1179L45.8169 42.2246ZM15.7988 22.0483C11.165 16.047 20.2291 9.0255 24.8509 15.0388L15.7988 22.0483Z" fill="#FFD166" stroke="#005268" stroke-width="1.78947" stroke-linecap="round" stroke-linejoin="round"/>
<path opacity="0.6" fill-rule="evenodd" clip-rule="evenodd" d="M40.6481 42.3745L28.5786 26.7232L29.5291 25.9902L41.5986 41.6416L40.6481 42.3745Z" fill="white"/>
<path opacity="0.4" d="M28.0239 27.1611L40.0814 42.8125L28.0239 27.1611Z" fill="#163150"/>
<path opacity="0.5" fill-rule="evenodd" clip-rule="evenodd" d="M16.0059 23.6982L26.2913 15.7285L27.0264 16.6773L16.741 24.647L16.0059 23.6982Z" fill="white"/>
</svg>
