<svg width="55" height="55" viewBox="0 0 55 55" fill="none" xmlns="http://www.w3.org/2000/svg">
<path d="M27.7569 5C22.2014 5 17.7056 10.1622 17.7056 16.541V20.8665C15.7547 21.272 13.7983 21.8126 13.7983 22.5143V45.0877C13.7983 45.0877 13.7983 45.712 14.4094 46.0081C16.6236 47.0379 25.3351 50.5781 27.3363 51.3891C27.5943 51.4985 27.667 51.4985 27.7344 51.4985C27.8296 51.4985 27.8745 51.4985 28.1325 51.3891C30.1335 50.5781 38.8675 47.0379 41.0819 46.0081C41.6479 45.7378 41.6704 45.1133 41.6704 45.1133V22.5144C41.6704 21.8128 39.7421 21.2464 37.7857 20.8666V16.5412C37.8137 10.1622 33.2897 5 27.7569 5ZM27.7569 10.5162C31.0306 10.5162 33.0095 12.7883 33.0095 16.5473V20.3067C29.3376 20.0106 26.2041 20.0106 22.5098 20.3067V16.5471C22.5098 12.7818 24.4885 10.516 27.7569 10.516V10.5162ZM27.7344 25.842C32.3031 25.842 36.1375 26.2475 36.1375 26.9749V41.0582C36.1375 41.2771 36.1151 41.3029 35.9468 41.3801C35.7842 41.4637 28.1548 44.6241 28.1548 44.6241C28.1548 44.6241 27.8466 44.7335 27.7569 44.7335C27.6615 44.7335 27.3588 44.5984 27.3588 44.5984C27.3588 44.5984 19.7292 41.4381 19.5668 41.3543C19.4042 41.2707 19.3762 41.2449 19.3762 41.0326V26.9491C19.3313 26.2217 23.1657 25.842 27.7344 25.842Z" fill="#282D32"/>
</svg>
